<svg xmlns="http://www.w3.org/2000/svg" width="222.6" height="78.1" viewBox="0 0 222.6 78.1"><g transform="translate(-16.4 -13.1)"><path d="M18.2,41.8h6.6L27,30.7c2-12.5,10.9-17.6,22-17.6s19.2.2,26.7.2a119.158,119.158,0,0,0-10.5,6,21.523,21.523,0,0,0-6.9,7.6,51.6,51.6,0,0,0-6.7-.1c-4.2,0-6.2,2.1-6.8,5.5l-1.9,9.4H53.5a35.009,35.009,0,0,0-4,6.1c-1.5,3.1-6.8,6.1-6.8,6.1H41L35.7,89.7H17.8L23,53.9H16.4l1.9-12.2Z" fill="#e31229"/><path d="M48.6,76.5c0-13.8,10.6-18.4,27.6-18.4h7.7l.2-1.4c.8-4.9-.3-8.1-6-8.1s-6.8,2.8-7.6,6.2H53.6c2.6-12.9,11.9-18.9,25.3-18.9s25.2,7.3,22.7,23L99.3,73.5c-1.1,6.8-1.4,11.9-.8,16.4H81.1a28.607,28.607,0,0,1-.3-6.5,18.329,18.329,0,0,1-15.6,7.7c-7.8,0-16.7-5.3-16.7-14.6Zm33.2-5,.5-3.2H76.7c-7.2,0-10.2,1.5-10.2,5.8s2,4.9,5.9,4.9,8.7-2.9,9.4-7.5Z" fill="#e31229"/><path d="M101,73.2h16.7c.3,3.5,2.1,5.9,7.4,5.9s6.1-1.4,6.1-4.2-1.7-3.6-8.9-5c-11.8-2.3-17.2-6.8-17.2-15.8s10.1-18.3,23.5-18.2c12.9,0,21.7,4.8,22.4,17H134.6c-.3-2.9-2.4-5.2-6.5-5.2s-6,1.4-6,3.9,2.5,3.5,8.2,4.8C143.6,59,149,62.9,149,73s-10.2,18.2-24.4,18.2-23.5-5.9-23.6-18Z" fill="#e31229"/><path d="M154.6,71.3,158,49.6h-6.3l1.9-12.2h6.3l1.8-10.9h18L178,37.4h10.1l-1.8,12.2H176.1l-3.4,21.2c-.7,4.5,1,6,4.6,6s3.3-.3,5-.9l-2.1,13.6a24.716,24.716,0,0,1-9.3,1.6C158.7,91.1,152.4,85.2,154.6,71.3Z" fill="#e31229"/><path d="M196.5,14.3h18L202.6,89.9H184.7l11.8-75.6Z" fill="#e31229"/><path d="M218.4,37.4h17.9l-8.2,52.5h-18Zm1.3-14.3c0-5.2,4.1-9.2,9.7-9.2S239,17.8,239,23s-4.2,9.2-9.7,9.2S219.7,28.4,219.7,23.1Z" fill="#e31229"/></g></svg>